PathFileType	4	(X/Y/Z)	C:\Users\WrightLab\Desktop\Jo\P2_Trial35.trc
DataRate	CameraRate	NumFrames	NumMarkers	Units	OrigDataRate	OrigDataStartFrame	OrigNumFrames
100.00	100.00	      76	19	mm	100.00	1	      1148
Frame#	Time	Headset_Front			Headset_Back			Headset_Left			Headset_Right			Left_Shoulder			Right_Shoulder			Sternum			C7			Left Elbow			Right Elbow			Left Wrist			Right Wrist			Left ASIS			Right ASIS			S2			Left Knee			Right Knee			Left Ankle			Right Ankle			
		X1	Y1	Z1	X2	Y2	Z2	X3	Y3	Z3	X4	Y4	Z4	X5	Y5	Z5	X6	Y6	Z6	X7	Y7	Z7	X8	Y8	Z8	X9	Y9	Z9	X10	Y10	Z10	X11	Y11	Z11	X12	Y12	Z12	X13	Y13	Z13	X14	Y14	Z14	X15	Y15	Z15	X16	Y16	Z16	X17	Y17	Z17	X18	Y18	Z18	X19	Y19	Z19	

1	0.000																																																										
2	0.010																																																										
3	0.020																																																										
4	0.030																																																										
5	0.040																																																										
6	0.050																																																										
7	0.060																																																										
8	0.070																																																										
9	0.080																																																										
10	0.090																																																										
11	0.100																																																										
12	0.110																																																										
13	0.120																																																										
14	0.130																																																										
15	0.140																																																										
16	0.150																																																										
17	0.160																																																										
18	0.170																																																										
19	0.180																																																										
20	0.190																																																										
21	0.200																																																										
22	0.210																																																										
23	0.220																																																										
24	0.230																																																										
25	0.240																																																										
26	0.250																																																										
27	0.260																																																										
28	0.270																																																										
29	0.280																																																										
30	0.290																																																										
31	0.300																																																										
32	0.310																																																										
33	0.320																																																										
34	0.330																																																										
35	0.340																																																										
36	0.350																																																										
37	0.360																																																										
38	0.370																																																										
39	0.380																																																										
40	0.390																																																										
41	0.400																																																										
42	0.410																																																										
43	0.420																																																										
44	0.430																																																										
45	0.440																																																										
46	0.450																																																										
47	0.460																																																										
48	0.470																																																										
49	0.480																																																										
50	0.490																																														-506.41010	514.82043	2378.34155										
51	0.500																																														-503.23276	514.99609	2374.92798										
52	0.510																																														-499.10873	514.36884	2372.58032										
53	0.520																																														-495.63538	514.67120	2370.22485										
54	0.530																																														-491.87735	516.02881	2365.75854										
55	0.540																																														-487.37897	516.00940	2361.52173										
56	0.550																																														-483.41464	515.80859	2357.60303										
57	0.560																																														-479.62335	517.32062	2352.91724										
58	0.570																																														-475.93976	518.45404	2348.62891										
59	0.580																																														-472.25723	519.07434	2344.78589										
60	0.590																																														-469.02484	519.12872	2340.93115										
61	0.600																																														-465.45990	519.96588	2338.56958										
62	0.610																																														-463.25003	519.95740	2334.58154										
63	0.620																																														-461.53088	520.50006	2330.58032										
64	0.630																																														-459.68198	520.98944	2328.15552										
65	0.640																																														-458.82022	521.16272	2323.89844										
66	0.650																																														-458.00345	521.02972	2321.36768										
67	0.660																																														-456.69431	519.80206	2320.17676										
68	0.670																																														-456.78506	521.20630	2314.66211										
69	0.680																																														-456.28265	521.02734	2312.30054										
70	0.690																																														-455.69156	521.06787	2311.19092										
71	0.700																																														-454.62039	521.23663	2307.73218										
72	0.710																																														-453.35272	520.79742	2302.78882										
73	0.720																																														-452.47842	521.34955	2297.34424										
74	0.730																																														-451.12119	521.51801	2294.72314										
75	0.740																																														-449.75641	521.49176	2288.32568										
76	0.750																																														-447.91006	521.62775	2281.52563										
